<svg width="30" height="30" viewBox="0 0 30 30" fill="none" xmlns="http://www.w3.org/2000/svg">
<path d="M17.9315 14.0314L15.9694 12.0692C15.4299 11.5298 14.5554 11.5298 14.016 12.0692L12.0539 14.0314C11.5144 14.5708 11.5144 15.4453 12.0539 15.9847L14.016 17.9469C14.5554 18.4863 15.4299 18.4863 15.9694 17.9469L17.9315 15.9847C18.4709 15.4453 18.4709 14.5708 17.9315 14.0314Z" fill="#F5811A"/>
<path d="M9.444 17.8765L8.65877 17.0913C7.51718 15.9497 7.51718 14.0995 8.65877 12.958L12.9572 8.65956C13.0131 8.60363 13.0704 8.55183 13.1298 8.50141L9.22093 4.59253L0.856191 12.958C-0.285397 14.0995 -0.285397 15.9497 0.856191 17.0913L12.9088 29.1439C14.0504 30.2855 15.9006 30.2855 17.0422 29.1439L18.8771 27.309L12.9578 21.3897L9.44469 17.8765H9.444Z" fill="#011565"/>
<path d="M12.958 0.856191L11.123 2.69116L20.5631 12.1312L21.3897 12.9578C22.5313 14.0994 22.5313 15.9496 21.3897 17.0912L17.0913 21.3896C17.0354 21.4455 16.9781 21.4973 16.9187 21.5477L20.7785 25.4076L29.144 17.0422C30.2856 15.9006 30.2856 14.0504 29.144 12.9088L17.0913 0.856191C15.9498 -0.285397 14.0996 -0.285397 12.958 0.856191Z" fill="#011565"/>
</svg>
